HIERARCHY
ROOT hip
{
  OFFSET 5.70873 43.8894 -1.52928
  CHANNELS 6 Xposition Yposition Zposition Zrotation Xrotation Yrotation
  JOINT abdomen
  {
    OFFSET 0 5.99393 0.287273
    CHANNELS 6 Xposition Yposition Zposition Zrotation Xrotation Yrotation
    JOINT chest
    {
      OFFSET 0 6.65865 -0.856112
      CHANNELS 6 Xposition Yposition Zposition Zrotation Xrotation Yrotation
      JOINT neck
      {
        OFFSET 0 8.65624 -1.42685
        CHANNELS 6 Xposition Yposition Zposition Zrotation Xrotation Yrotation
        JOINT head
        {
          OFFSET 0 3.80999 -0.190247
          CHANNELS 6 Xposition Yposition Zposition Zrotation Xrotation Yrotation
          End Site
          {
            OFFSET 0 0 0
          }
        }
      }
      JOINT rCollar
      {
        OFFSET -1.4963 7.5744 -1.52136
        CHANNELS 6 Xposition Yposition Zposition Zrotation Xrotation Yrotation
        JOINT rShldr
        {
          OFFSET -5.47506 -0.905672 0.485692
          CHANNELS 6 Xposition Yposition Zposition Zrotation Xrotation Yrotation
          JOINT rForeArm
          {
            OFFSET -11.3069 -0.201091 0.618544
            CHANNELS 6 Xposition Yposition Zposition Zrotation Xrotation Yrotation
            JOINT rHand
            {
              OFFSET -9.61414 -0.254739 3.48553
              CHANNELS 6 Xposition Yposition Zposition Zrotation Xrotation Yrotation
              JOINT rThumb1
              {
                OFFSET 0.176263 -0.07068 1.26622
                CHANNELS 6 Xposition Yposition Zposition Zrotation Xrotation Yrotation
                JOINT rThumb2
                {
                  OFFSET -1.04683 -0.546484 1.82182
                  CHANNELS 6 Xposition Yposition Zposition Zrotation Xrotation Yrotation
                  JOINT rThumb3
                  {
                    OFFSET -0.993472 -0.621916 0.655506
                    CHANNELS 6 Xposition Yposition Zposition Zrotation Xrotation Yrotation
                    End Site
                    {
                      OFFSET -0.996134 -0.66263 0.644615
                    }
                  }
                }
              }
              JOINT rIndex1
              {
                OFFSET -2.64253 0.566363 2.4162
                CHANNELS 6 Xposition Yposition Zposition Zrotation Xrotation Yrotation
                JOINT rIndex2
                {
                  OFFSET -1.39394 -0.635138 0.899356
                  CHANNELS 6 Xposition Yposition Zposition Zrotation Xrotation Yrotation
                  JOINT rIndex3
                  {
                    OFFSET -0.622395 -0.856016 0.402182
                    CHANNELS 6 Xposition Yposition Zposition Zrotation Xrotation Yrotation
                    End Site
                    {
                      OFFSET -0.472476 -0.801802 0.34216
                    }
                  }
                }
              }
              JOINT rMid1
              {
                OFFSET -3.20814 0.514427 1.52547
                CHANNELS 6 Xposition Yposition Zposition Zrotation Xrotation Yrotation
                JOINT rMid2
                {
                  OFFSET -1.56545 -0.497974 0.68919
                  CHANNELS 6 Xposition Yposition Zposition Zrotation Xrotation Yrotation
                  JOINT rMid3
                  {
                    OFFSET -0.679943 -1.17582 0.444246
                    CHANNELS 6 Xposition Yposition Zposition Zrotation Xrotation Yrotation
                    End Site
                    {
                      OFFSET -0.343874 -0.941341 0.267611
                    }
                  }
                }
              }
              JOINT rRing1
              {
                OFFSET -3.47877 0.200518 0.597719
                CHANNELS 6 Xposition Yposition Zposition Zrotation Xrotation Yrotation
                JOINT rRing2
                {
                  OFFSET -1.28208 -0.53155 0.44672
                  CHANNELS 6 Xposition Yposition Zposition Zrotation Xrotation Yrotation
                  JOINT rRing3
                  {
                    OFFSET -0.710288 -0.970167 0.4032
                    CHANNELS 6 Xposition Yposition Zposition Zrotation Xrotation Yrotation
                    End Site
                    {
                      OFFSET -0.403228 -0.950952 0.378354
                    }
                  }
                }
              }
              JOINT rPinky1
              {
                OFFSET -3.42483 -0.278904 -0.240415
                CHANNELS 6 Xposition Yposition Zposition Zrotation Xrotation Yrotation
                JOINT rPinky2
                {
                  OFFSET -1.05787 -0.635999 0.156459
                  CHANNELS 6 Xposition Yposition Zposition Zrotation Xrotation Yrotation
                  JOINT rPinky3
                  {
                    OFFSET -0.42815 -0.754232 0.287187
                    CHANNELS 6 Xposition Yposition Zposition Zrotation Xrotation Yrotation
                    End Site
                    {
                      OFFSET -0.235717 -0.725605 0.279416
                    }
                  }
                }
              }
            }
          }
        }
      }
      JOINT lCollar
      {
        OFFSET 1.4963 7.5744 -1.52136
        CHANNELS 6 Xposition Yposition Zposition Zrotation Xrotation Yrotation
        JOINT lShldr
        {
          OFFSET 5.47506 -0.905672 0.485692
          CHANNELS 6 Xposition Yposition Zposition Zrotation Xrotation Yrotation
          JOINT lForeArm
          {
            OFFSET 11.3069 -0.201091 0.618544
            CHANNELS 6 Xposition Yposition Zposition Zrotation Xrotation Yrotation
            JOINT lHand
            {
              OFFSET 9.61414 -0.254739 3.48553
              CHANNELS 6 Xposition Yposition Zposition Zrotation Xrotation Yrotation
              JOINT lThumb1
              {
                OFFSET -0.176263 -0.07068 1.26622
                CHANNELS 6 Xposition Yposition Zposition Zrotation Xrotation Yrotation
                JOINT lThumb2
                {
                  OFFSET 1.04683 -0.546484 1.82182
                  CHANNELS 6 Xposition Yposition Zposition Zrotation Xrotation Yrotation
                  JOINT lThumb3
                  {
                    OFFSET 0.993472 -0.621916 0.655506
                    CHANNELS 6 Xposition Yposition Zposition Zrotation Xrotation Yrotation
                    End Site
                    {
                      OFFSET 0.996134 -0.66263 0.644615
                    }
                  }
                }
              }
              JOINT lIndex1
              {
                OFFSET 2.64253 0.566363 2.4162
                CHANNELS 6 Xposition Yposition Zposition Zrotation Xrotation Yrotation
                JOINT lIndex2
                {
                  OFFSET 1.39394 -0.635138 0.899356
                  CHANNELS 6 Xposition Yposition Zposition Zrotation Xrotation Yrotation
                  JOINT lIndex3
                  {
                    OFFSET 0.622395 -0.856016 0.402182
                    CHANNELS 6 Xposition Yposition Zposition Zrotation Xrotation Yrotation
                    End Site
                    {
                      OFFSET 0.472476 -0.801802 0.34216
                    }
                  }
                }
              }
              JOINT lMid1
              {
                OFFSET 3.20814 0.514427 1.52547
                CHANNELS 6 Xposition Yposition Zposition Zrotation Xrotation Yrotation
                JOINT lMid2
                {
                  OFFSET 1.56545 -0.497974 0.68919
                  CHANNELS 6 Xposition Yposition Zposition Zrotation Xrotation Yrotation
                  JOINT lMid3
                  {
                    OFFSET 0.679943 -1.17582 0.444246
                    CHANNELS 6 Xposition Yposition Zposition Zrotation Xrotation Yrotation
                    End Site
                    {
                      OFFSET 0.343874 -0.941341 0.267611
                    }
                  }
                }
              }
              JOINT lRing1
              {
                OFFSET 3.47877 0.200518 0.597719
                CHANNELS 6 Xposition Yposition Zposition Zrotation Xrotation Yrotation
                JOINT lRing2
                {
                  OFFSET 1.28208 -0.53155 0.44672
                  CHANNELS 6 Xposition Yposition Zposition Zrotation Xrotation Yrotation
                  JOINT lRing3
                  {
                    OFFSET 0.710288 -0.970167 0.4032
                    CHANNELS 6 Xposition Yposition Zposition Zrotation Xrotation Yrotation
                    End Site
                    {
                      OFFSET 0.403228 -0.950952 0.378354
                    }
                  }
                }
              }
              JOINT lPinky1
              {
                OFFSET 3.42483 -0.278904 -0.240415
                CHANNELS 6 Xposition Yposition Zposition Zrotation Xrotation Yrotation
                JOINT lPinky2
                {
                  OFFSET 1.05787 -0.635999 0.156459
                  CHANNELS 6 Xposition Yposition Zposition Zrotation Xrotation Yrotation
                  JOINT lPinky3
                  {
                    OFFSET 0.42815 -0.754232 0.287187
                    CHANNELS 6 Xposition Yposition Zposition Zrotation Xrotation Yrotation
                    End Site
                    {
                      OFFSET 0.235717 -0.725605 0.279416
                    }
                  }
                }
              }
            }
          }
        }
      }
    }
  }
  JOINT rThigh
  {
    OFFSET -4.17848 -1.02486 0.046356
    CHANNELS 6 Xposition Yposition Zposition Zrotation Xrotation Yrotation
    JOINT rShin
    {
      OFFSET 1.27155 -17.465 -0.237699
      CHANNELS 6 Xposition Yposition Zposition Zrotation Xrotation Yrotation
      JOINT rFoot
      {
        OFFSET 0.529163 -17.3815 -1.19582
        CHANNELS 6 Xposition Yposition Zposition Zrotation Xrotation Yrotation
        JOINT rToe
        {
          OFFSET -0.711591 -4.4863 4.0596
          CHANNELS 6 Xposition Yposition Zposition Zrotation Xrotation Yrotation
          End Site
          {
            OFFSET -0.869915 -1.10655 1.99006
          }
        }
      }
    }
  }
  JOINT lThigh
  {
    OFFSET 4.17848 -1.02486 0.046356
    CHANNELS 6 Xposition Yposition Zposition Zrotation Xrotation Yrotation
    JOINT lShin
    {
      OFFSET -1.27155 -17.465 -0.237699
      CHANNELS 6 Xposition Yposition Zposition Zrotation Xrotation Yrotation
      JOINT lFoot
      {
        OFFSET -0.529163 -17.3815 -1.19582
        CHANNELS 6 Xposition Yposition Zposition Zrotation Xrotation Yrotation
        JOINT lToe
        {
          OFFSET 0.711591 -4.4863 4.0596
          CHANNELS 6 Xposition Yposition Zposition Zrotation Xrotation Yrotation
          End Site
          {
            OFFSET 0.869915 -1.10655 1.99006
          }
        }
      }
    }
  }
}
MOTION
Frames:	4
Frame Time:	0.0333333
-16.9669 42.8645 -22.8224 -0.630002 6.11144 101.885 3.55271e-015 5.99393 0.287273 0.0307556 -3.58817 1.70446 0 6.65865 -0.856112 0.169182 -7.17383 3.42097 -3.55271e-015 8.65624 -1.42685 -0.568454 13.6126 -8.57843 0 3.80999 -0.190247 -6.32863 -1.1007 -8.81009 -1.4963 7.5744 -1.52136 -43.5815 -1.20663 5.58243 -5.47506 -0.905672 0.485692 -7.94205 -42.0643 -3.65811 -11.3069 -0.201091 0.618544 2.05174 -34.9628 9.73304 -9.61414 -0.254739 3.48553 9.35873 -20.4716 -7.68197 0.176263 -0.07068 1.26622 -15.6871 50.412 18.5117 -1.04683 -0.546484 1.82182 -0.515945 0.557619 -1.56016 -0.993472 -0.621916 0.655506 -2.72966 3.35528 -8.82948 -2.64253 0.566363 2.4162 -23.6212 5.4709 -14.5209 -1.39394 -0.635138 0.899356 39.8961 7.70398 -8.81744 -0.622395 -0.856016 0.402182 39.2013 7.62941 -8.62655 -3.20814 0.514427 1.52547 -0.840507 5.94957 -9.82426 -1.56545 -0.497974 0.68919 52.7412 10.533 -13.0893 -0.679943 -1.17582 0.444246 44.481 9.78103 -10.5178 -3.47877 0.200518 0.597719 16.3707 -0.644948 -5.84616 -1.28208 -0.53155 0.44672 37.8364 9.71768 -10.3215 -0.710288 -0.970167 0.4032 39.1355 9.91105 -10.7659 -3.42483 -0.278904 -0.240415 24.5435 -1.90435 -2.26384 -1.05787 -0.635999 0.156459 31.0599 9.47511 -7.88939 -0.42815 -0.754232 0.287187 30.9985 9.46352 -7.86997 1.4963 7.5744 -1.52136 0.49645 0.856058 8.23862 5.47506 -0.905672 0.485692 -75.3981 -1.15599 30.8561 11.3069 -0.201091 0.618544 1.29223 6.76531 -11.9921 9.61414 -0.254739 3.48553 -21.6339 -37.5611 0.729167 -0.176263 -0.07068 1.26622 0.000303956 0.000335701 8.46742e-006 1.04683 -0.546484 1.82182 -0.000242067 -0.000233546 1.68532e-005 0.993472 -0.621916 0.655506 -0.000179877 3.81678e-005 1.18587e-005 2.64253 0.566363 2.4162 -7.93793e-005 -0.000124937 0.000183546 1.39394 -0.635138 0.899356 0.000359528 0.00014913 -1.46211e-005 0.622395 -0.856016 0.402182 -0.000179876 1.2468e-005 2.39862e-005 3.20814 0.514427 1.52547 2.09793 -0.815585 -0.83194 1.56545 -0.497974 0.68919 2.09899 -0.816079 -0.832352 0.679943 -1.17582 0.444246 2.09905 -0.816174 -0.832674 3.47877 0.200518 0.597719 2.14667 -3.85414 -5.50507 1.28208 -0.53155 0.44672 4.62103 -2.03844 -2.04494 0.710288 -0.970167 0.4032 4.62131 -2.03843 -2.045 3.42483 -0.278904 -0.240415 11.3266 -5.7094 -4.60754 1.05787 -0.635999 0.156459 4.0525 -1.91414 -1.75638 0.42815 -0.754232 0.287187 2.84277 -1.32697 -1.24341 -4.17848 -1.02486 0.046356 -2.11585 -19.8272 44.8102 1.27155 -17.465 -0.237699 9.22613 39.7545 -1.77768 0.529163 -17.3815 -1.19582 -12.8334 8.82634 -21.2813 -0.711591 -4.4863 4.0596 25.3429 -2.83552 -8.17083 4.17848 -1.02486 0.046356 -20.3882 2.94082 -1.41148 -1.27155 -17.465 -0.237699 0.48566 -3.16357 0.936343 -0.529163 -17.3815 -1.19582 9.48149 0.314404 -6.293 0.711591 -4.4863 4.0596 5.83441 4.89979 -1.08936 
-17.0206 42.8475 -22.8519 -1.15984 6.36776 102.442 0 5.99393 0.287273 -0.312609 -3.53039 1.52604 0 6.65865 -0.856112 -0.532221 -7.06782 3.04146 0 8.65624 -1.42685 -0.318012 13.3451 -9.47565 0 3.80999 -0.190247 -6.57372 -1.10547 -9.67 -1.4963 7.5744 -1.52136 -43.9689 -1.18825 5.5306 -5.47506 -0.905672 0.485692 -7.56954 -41.2269 -5.14141 -11.3069 -0.201091 0.618544 1.96172 -35.3886 10.0982 -9.61414 -0.254739 3.48553 9.98416 -21.41 -7.33598 0.176263 -0.07068 1.26622 -15.6871 50.412 18.5117 -1.04683 -0.546484 1.82182 -0.515942 0.557626 -1.56016 -0.993472 -0.621916 0.655506 -2.72964 3.3553 -8.82948 -2.64253 0.566363 2.4162 -23.6212 5.47092 -14.5209 -1.39394 -0.635138 0.899356 39.8961 7.70397 -8.81744 -0.622395 -0.856016 0.402182 39.2013 7.62941 -8.62655 -3.20814 0.514427 1.52547 -0.840486 5.94957 -9.82427 -1.56545 -0.497974 0.68919 52.7411 10.533 -13.0893 -0.679943 -1.17582 0.444246 44.481 9.78103 -10.5178 -3.47877 0.200518 0.597719 16.3708 -0.644936 -5.84617 -1.28208 -0.53155 0.44672 37.8364 9.71769 -10.3215 -0.710288 -0.970167 0.4032 39.1355 9.91105 -10.7659 -3.42483 -0.278904 -0.240415 24.5435 -1.90434 -2.26385 -1.05787 -0.635999 0.156459 31.0607 9.47546 -7.88972 -0.42815 -0.754232 0.287187 30.9985 9.46354 -7.86997 1.4963 7.5744 -1.52136 0.954116 0.825942 7.91323 5.47506 -0.905672 0.485692 -75.3938 -0.92987 30.682 11.3069 -0.201091 0.618544 1.33384 7.45942 -10.9504 9.61414 -0.254739 3.48553 -20.7326 -34.8589 2.91663 -0.176263 -0.07068 1.26622 0.0982642 0.089734 0.318806 1.04683 -0.546484 1.82182 -0.0311095 -0.00938534 -0.0549959 0.993472 -0.621916 0.655506 0.0692231 0.0207302 0.123744 2.64253 0.566363 2.4162 -0.38118 0.226512 0.376864 1.39394 -0.635138 0.899356 -0.26531 0.0888605 0.106377 0.622395 -0.856016 0.402182 -0.328204 0.109457 0.13145 3.20814 0.514427 1.52547 1.7853 -0.602187 -0.669561 1.56545 -0.497974 0.68919 1.66856 -0.645875 -0.663716 0.679943 -1.17582 0.444246 1.7809 -0.690233 -0.70811 3.47877 0.200518 0.597719 1.8391 -3.66769 -5.27829 1.28208 -0.53155 0.44672 4.14183 -1.818 -1.83911 0.710288 -0.970167 0.4032 4.25066 -1.86777 -1.88595 3.42483 -0.278904 -0.240415 10.7593 -5.4381 -4.45489 1.05787 -0.635999 0.156459 3.64755 -1.71612 -1.58592 0.42815 -0.754232 0.287187 2.51621 -1.17074 -1.10329 -4.17848 -1.02486 0.046356 -2.43467 -20.6896 44.7645 1.27155 -17.465 -0.237699 9.44901 40.3651 -2.0122 0.529163 -17.3815 -1.19582 -12.0468 9.11383 -21.3877 -0.711591 -4.4863 4.0596 24.9999 -2.42255 -8.2031 4.17848 -1.02486 0.046356 -20.7087 2.52098 -2.01931 -1.27155 -17.465 -0.237699 0.471105 -3.0704 0.825338 -0.529163 -17.3815 -1.19582 9.04684 0.254142 -5.89742 0.711591 -4.4863 4.0596 5.81041 5.11575 -1.12228 
-17.0529 42.8327 -22.8395 -1.65439 6.65167 102.772 0 5.99393 0.287273 -0.665631 -3.46895 1.49539 0 6.65865 -0.856112 -1.2436 -6.95392 2.95825 0 8.65624 -1.42685 0.300478 13.5128 -10.0009 -7.10543e-015 3.80999 -0.190247 -6.99848 -1.34303 -10.3444 -1.4963 7.5744 -1.52136 -44.1182 -1.17451 5.20245 -5.47506 -0.905672 0.485692 -7.41515 -39.9732 -6.42698 -11.3069 -0.201091 0.618544 1.5748 -35.0768 10.231 -9.61414 -0.254739 3.48553 10.8273 -23.3487 -6.90675 0.176263 -0.07068 1.26622 -15.6871 50.412 18.5117 -1.04683 -0.546484 1.82182 -0.515951 0.557627 -1.56017 -0.993472 -0.621916 0.655506 -2.72966 3.3553 -8.8295 -2.64253 0.566363 2.4162 -23.6212 5.47091 -14.5209 -1.39394 -0.635138 0.899356 39.8962 7.70401 -8.81746 -0.622395 -0.856016 0.402182 39.2014 7.62942 -8.6266 -3.20814 0.514427 1.52547 -0.840492 5.94956 -9.82427 -1.56545 -0.497974 0.68919 52.7412 10.533 -13.0893 -0.679943 -1.17582 0.444246 44.481 9.78103 -10.5178 -3.47877 0.200518 0.597719 16.3707 -0.644933 -5.84617 -1.28208 -0.53155 0.44672 37.8364 9.71768 -10.3215 -0.710288 -0.970167 0.4032 39.1355 9.91108 -10.7659 -3.42483 -0.278904 -0.240415 24.5435 -1.90432 -2.26386 -1.05787 -0.635999 0.156459 31.0616 9.47584 -7.89005 -0.42815 -0.754232 0.287187 30.9985 9.46351 -7.86997 1.4963 7.5744 -1.52136 1.36827 0.792446 7.56347 5.47506 -0.905672 0.485692 -75.3218 -0.807865 31.079 11.3069 -0.201091 0.618544 1.7646 8.5155 -10.2966 9.61414 -0.254739 3.48553 -20.4522 -33.997 4.14284 -0.176263 -0.07068 1.26622 0.341359 0.313715 1.11546 1.04683 -0.546484 1.82182 -0.114955 -0.0340706 -0.204347 0.993472 -0.621916 0.655506 0.257405 0.0776431 0.459486 2.64253 0.566363 2.4162 -1.42245 0.83858 1.40307 1.39394 -0.635138 0.899356 -0.987228 0.327145 0.397251 0.622395 -0.856016 0.402182 -1.2198 0.402707 0.491312 3.20814 0.514427 1.52547 0.932965 -0.026109 -0.225659 1.56545 -0.497974 0.68919 0.497709 -0.190313 -0.199553 0.679943 -1.17582 0.444246 0.916105 -0.351943 -0.366611 3.47877 0.200518 0.597719 1.01454 -3.1732 -4.6643 1.28208 -0.53155 0.44672 2.83725 -1.22842 -1.27127 0.710288 -0.970167 0.4032 3.24241 -1.40977 -1.44873 3.42483 -0.278904 -0.240415 9.21667 -4.71204 -4.02557 1.05787 -0.635999 0.156459 2.54562 -1.18478 -1.11628 0.42815 -0.754232 0.287187 1.63105 -0.758432 -0.721604 -4.17848 -1.02486 0.046356 -2.35832 -21.4143 45.6117 1.27155 -17.465 -0.237699 9.62244 40.9696 -2.30608 0.529163 -17.3815 -1.19582 -11.0398 9.75057 -21.6167 -0.711591 -4.4863 4.0596 24.0364 -1.54945 -8.14757 4.17848 -1.02486 0.046356 -20.9876 2.216 -1.34749 -1.27155 -17.465 -0.237699 0.43368 -3.17261 0.634729 -0.529163 -17.3815 -1.19582 8.75315 0.211683 -6.81966 0.711591 -4.4863 4.0596 5.81933 5.03137 -1.10853 
-17.1047 42.8176 -22.7985 -2.20175 7.07155 103.596 -3.55271e-015 5.99393 0.287273 -1.08413 -3.35538 1.47345 0 6.65865 -0.856112 -2.08673 -6.73704 2.8904 0 8.65624 -1.42685 1.0447 13.7309 -10.4855 3.55271e-015 3.80999 -0.190247 -7.38265 -1.45337 -10.5884 -1.4963 7.5744 -1.52136 -44.2256 -1.13594 4.75392 -5.47506 -0.905672 0.485692 -7.58877 -38.3169 -8.25398 -11.3069 -0.201091 0.618544 1.18288 -34.7815 10.6932 -9.61414 -0.254739 3.48553 11.7153 -25.444 -6.68835 0.176263 -0.07068 1.26622 -15.6871 50.412 18.5117 -1.04683 -0.546484 1.82182 -0.515953 0.557628 -1.56015 -0.993472 -0.621916 0.655506 -2.72965 3.35529 -8.82947 -2.64253 0.566363 2.4162 -23.6212 5.47093 -14.5209 -1.39394 -0.635138 0.899356 39.8961 7.704 -8.81744 -0.622395 -0.856016 0.402182 39.2013 7.62943 -8.62657 -3.20814 0.514427 1.52547 -0.840489 5.94959 -9.82427 -1.56545 -0.497974 0.68919 52.7411 10.533 -13.0893 -0.679943 -1.17582 0.444246 44.481 9.78104 -10.5178 -3.47877 0.200518 0.597719 16.3707 -0.644931 -5.84617 -1.28208 -0.53155 0.44672 37.8364 9.71773 -10.3215 -0.710288 -0.970167 0.4032 39.1354 9.91109 -10.7659 -3.42483 -0.278904 -0.240415 24.5435 -1.90432 -2.26386 -1.05787 -0.635999 0.156459 31.0624 9.4762 -7.89037 -0.42815 -0.754232 0.287187 30.9985 9.46352 -7.86995 1.4963 7.5744 -1.52136 1.76466 0.754311 7.18344 5.47506 -0.905672 0.485692 -75.1732 -0.725775 31.5276 11.3069 -0.201091 0.618544 2.25554 9.27249 -9.77639 9.61414 -0.254739 3.48553 -20.2973 -33.7385 5.3166 -0.176263 -0.07068 1.26622 0.652628 0.608817 2.16209 1.04683 -0.546484 1.82182 -0.238638 -0.0700666 -0.424555 0.993472 -0.621916 0.655506 0.534091 0.163542 0.953892 2.64253 0.566363 2.4162 -2.97555 1.73191 2.92547 1.39394 -0.635138 0.899356 -2.05335 0.671567 0.831328 0.622395 -0.856016 0.402182 -2.5371 0.824552 1.02987 3.20814 0.514427 1.52547 -0.333761 0.814259 0.437036 1.56545 -0.497974 0.68919 -1.2344 0.463479 0.501191 0.679943 -1.17582 0.444246 -0.361969 0.137124 0.145891 3.47877 0.200518 0.597719 -0.203317 -2.44991 -3.74383 1.28208 -0.53155 0.44672 0.904576 -0.383571 -0.410543 0.710288 -0.970167 0.4032 1.75057 -0.749043 -0.790022 3.42483 -0.278904 -0.240415 6.93464 -3.67067 -3.35345 1.05787 -0.635999 0.156459 0.91418 -0.418508 -0.405879 0.42815 -0.754232 0.287187 0.317017 -0.150524 -0.14291 -4.17848 -1.02486 0.046356 -2.58529 -22.286 45.8574 1.27155 -17.465 -0.237699 9.92214 41.8962 -2.75371 0.529163 -17.3815 -1.19582 -9.92351 9.99803 -21.6534 -0.711591 -4.4863 4.0596 22.6805 -0.335051 -8.02271 4.17848 -1.02486 0.046356 -21.3678 1.91585 -1.247 -1.27155 -17.465 -0.237699 0.387389 -3.17964 0.395449 -0.529163 -17.3815 -1.19582 8.32748 0.244858 -7.31766 0.711591 -4.4863 4.0596 5.83229 4.90879 -1.08852 
